{"title":"FakeTaxi.E69.Harley.XXX.1080p.MOV-KTR","uid":9128248,"size":1422335331,"categoryP":"porn","categoryS":"movie_clips","magnet":"?xt=urn:btih:39e0d2ba40a98c66a08f593ecb73b7f9b57e4553&amp;dn=FakeTaxi.E69.Harley.XXX.1080p.MOV-KTR&amp;tr=udp%3A%2F%2Ftracker.openbittorrent.com%3A80&amp;tr=udp%3A%2F%2Fopen.demonii.com%3A1337&amp;tr=udp%3A%2F%2Ftracker.coppersurfer.tk%3A6969&amp;tr=udp%3A%2F%2Fexodus.desync.com%3A6969","seeders":1,"leechers":0,"uploader":null,"files":2,"time":1383265161,"description":" &lt;a href=&quot;http://s23.postimg.org/5pe6hbiln/527278e45b0c2.jpg&quot; rel=&quot;nofollow&quot; target=&quot;_NEW&quot;&gt;http://s23.postimg.org/5pe6hbiln/527278e45b0c2.jpg&lt;/a&gt;\n\n\n\nI love a mature blonde and being from Australia was just the icing on the cake. And to find out she hasn't had sex in over a year due to being divorced got my cock raging. I couldn't wait to give her...\n\nFormat : MPEG-4\nFormat profile : QuickTime\nCodec ID : qt\nFile size : 1.32 GiB\nDuration : 30mn 29s\nOverall bit rate : 6 221 Kbps\nEncoded date : UTC 2013-10-23 18:10:20\nTagged date : UTC 2013-10-23 22:42:12\nWriting library : Apple QuickTime\nMedia/UUID : 7502962D-EEB9-4254-8725-02AA53B0379F\n\nVideo\nID : 1\nFormat : AVC\nFormat/Info : Advanced Video Codec\nFormat profile : &lt;a class=&quot;__cf_email__&quot; href=&quot;/cdn-cgi/l/email-protection&quot; data-cfemail=&quot;baf7dbd3d4faf68e948a&quot;&gt;[email&amp;#160;protected]&lt;/a&gt;&lt;script cf-hash='f9e31' type=&quot;text/javascript&quot;&gt;\n/* &lt;![CDATA[ */!function(){try{var t=&quot;currentScript&quot;in document?document.currentScript:function(){for(var t=document.getElementsByTagName(&quot;script&quot;),e=t.length;e--;)if(t[e].getAttribute(&quot;cf-hash&quot;))return t[e]}();if(t&amp;&amp;t.previousSibling){var e,r,n,i,c=t.previousSibling,a=c.getAttribute(&quot;data-cfemail&quot;);if(a){for(e=&quot;&quot;,r=parseInt(a.substr(0,2),16),n=2;a.length-n;n+=2)i=parseInt(a.substr(n,2),16)^r,e+=String.fromCharCode(i);e=document.createTextNode(e),c.parentNode.replaceChild(e,c)}}}catch(u){}}();/* ]]&gt; */&lt;/script&gt;\nFormat settings, CABAC : No\nFormat settings, ReFrames : 2 frames\nFormat settings, GOP : M=2, N=50\nCodec ID : avc1\nCodec ID/Info : Advanced Video Coding\nDuration : 30mn 29s\nBit rate : 6 090 Kbps\nWidth : 1 888 pixels\nOriginal width : 1 920 pixels\nHeight : 1 062 pixels\nOriginal height : 1 080 pixels\nDisplay aspect ratio : 16:9\nFrame rate mode : Constant\nFrame rate : 25.000 fps\nColor space : YUV\nChroma subsampling : 4:2:0\nBit depth : 8 bits\nScan type : Progressive\nBits/(Pixel*Frame) : 0.121\nStream size : 1.30 GiB (98%)\nLanguage : English\nEncoded date : UTC 2013-10-23 22:40:15\nTagged date : UTC 2013-10-23 22:42:12\nColor primaries : BT.709\nTransfer characteristics : BT.709\nMatrix coefficients : BT.709\n\nAudio\nID : 2\nFormat : AAC\nFormat/Info : Advanced Audio Codec\nFormat profile : LC\nCodec ID : 40\nDuration : 30mn 29s\nSource duration : 30mn 29s\nBit rate mode : Constant\nBit rate : 128 Kbps\nChannel(s) : 2 channels\nChannel positions : Front: L R\nSampling rate : 44.1 KHz\nCompression mode : Lossy\nStream size : 27.4 MiB (2%)\nSource stream size : 27.4 MiB (2%)\nLanguage : English\nEncoded date : UTC 2013-10-23 22:40:15\nTagged date : UTC 2013-10-23 22:42:12\n\nMenu\nID : 3\nDuration : 30mn 29s\nLanguage : English\nEncoded date : UTC 2013-10-23 22:42:12\nTagged date : UTC 2013-10-23 22:42:12","torrent":{"xt":"urn:btih:39e0d2ba40a98c66a08f593ecb73b7f9b57e4553","amp;dn":"FakeTaxi.E69.Harley.XXX.1080p.MOV-KTR","amp;tr":["udp%3A%2F%2Ftracker.openbittorrent.com%3A80","udp%3A%2F%2Fopen.demonii.com%3A1337","udp%3A%2F%2Ftracker.coppersurfer.tk%3A6969","udp%3A%2F%2Fexodus.desync.com%3A6969"],"infoHash":"39e0d2ba40a98c66a08f593ecb73b7f9b57e4553","infoHashBuffer":{"type":"Buffer","data":[57,224,210,186,64,169,140,102,160,143,89,62,203,115,183,249,181,126,69,83]},"announce":[],"urlList":[]}}